<?xml version="1.0" encoding="UTF-8"?>
<svg width="202px" height="196px" viewBox="0 0 202 196" version="1.1" xmlns="http://www.w3.org/2000/svg" xmlns:xlink="http://www.w3.org/1999/xlink">
    <!-- Generator: Sketch 55 (78076) - https://sketchapp.com -->
    <title>empty</title>
    <desc>Created with Sketch.</desc>
    <g id="Page-2" stroke="none" stroke-width="1" fill="none" fill-rule="evenodd" opacity="0.197381882">
        <g id="评论为空" transform="translate(-274.000000, -922.000000)">
            <g id="empty" transform="translate(274.000000, 916.000000)">
                <rect id="矩形" fill="#000000" opacity="0" x="0" y="0" width="202" height="202"></rect>
                <path d="M168.763988,84.3092866 L33.2360121,84.3092866 C30.7309833,84.3092866 28.4232009,85.6699869 27.2002734,87.8589395 L0.867883996,135.089043 C0.295869544,136.114498 0,137.277996 0,138.461213 L0,195.078177 C0,198.903914 3.09676789,202 6.92334733,202 L195.076653,202 C198.903232,202 202,198.903914 202,195.078177 L202,138.461213 C202,137.277996 201.70413,136.134219 201.132116,135.089043 L174.799727,87.8589395 C173.576799,85.6699869 171.269017,84.3092866 168.763988,84.3092866 Z M132.825701,137.238555 C129.571136,137.238555 126.750513,139.506389 126.06015,142.701077 C123.555122,154.237448 113.278586,162.874937 100.970413,162.874937 C88.66224,162.874937 78.3857045,154.237448 75.8806757,142.701077 C75.1903134,139.526109 72.3696905,137.238555 69.1151255,137.238555 L23.4723172,137.238555 C18.2650132,137.238555 14.9315497,131.716873 17.3379553,127.102324 L33.4529831,96.3781064 C34.6561859,94.0905524 37.0034176,92.6706912 39.587345,92.6706912 L162.353481,92.6706912 C164.917684,92.6706912 167.28464,94.0905524 168.487843,96.3781064 L184.602871,127.102324 C187.009276,131.716873 183.675813,137.238555 178.468509,137.238555 L132.825701,137.238555 Z M161.722293,41.3782071 C161.525046,41.0232418 161.308075,40.6485562 161.091104,40.2935909 C159.15809,37.0200221 154.956743,35.9156857 151.662728,37.8088339 L127.914266,51.5341584 C124.561078,53.4667472 123.436774,57.7657712 125.428962,61.0787806 C125.606484,61.3548647 125.764281,61.6506691 125.922078,61.9464735 C127.795918,65.2989234 132.076164,66.4427005 135.389903,64.5101117 L159.177815,50.8045075 C162.471829,48.891639 163.596133,44.6912164 161.722293,41.3782071 Z M74.0462845,51.5538787 L50.2978225,37.8482745 C47.0038082,35.9551263 42.8024607,37.0594627 40.8694463,40.3330315 C40.6524753,40.6879968 40.455229,41.0429621 40.238258,41.4176477 C38.3644175,44.730657 39.4887218,48.9310796 42.7827361,50.8439481 L66.5311981,64.5495523 C69.8646617,66.4624208 74.1449077,65.338364 75.9990235,61.9661938 C76.1568206,61.6703894 76.3343423,61.3943053 76.4921394,61.0985009 C78.5040523,57.7854915 77.3797481,53.4864675 74.0462845,51.5538787 L74.0462845,51.5538787 Z M100.990138,47.2548546 L101.483254,47.2548546 C105.329558,47.3140155 108.485499,44.1982091 108.485499,40.3330315 L108.485499,12.9218231 C108.485499,9.11580642 105.408456,6.03944059 101.621326,6 L100.358949,6 C96.5718192,6.03944059 93.4947759,9.13552671 93.4947759,12.9218231 L93.4947759,40.3330315 C93.4947759,44.1784888 96.6309931,47.3140155 100.497022,47.2548546 L100.990138,47.2548546 Z" id="形状" fill="#EDEDED" fill-rule="nonzero"></path>
            </g>
        </g>
    </g>
</svg>