<?xml version="1.0" encoding="UTF-8"?>
<svg width="56px" height="50px" viewBox="0 0 56 50" version="1.1" xmlns="http://www.w3.org/2000/svg" xmlns:xlink="http://www.w3.org/1999/xlink">
    <!-- Generator: Sketch 55 (78076) - https://sketchapp.com -->
    <title>路径</title>
    <desc>Created with Sketch.</desc>
    <g id="Page-2" stroke="none" stroke-width="1" fill="none" fill-rule="evenodd">
        <g id="已点赞" transform="translate(-650.000000, -982.000000)" fill="#FFFFFF">
            <g id="heart-fill" transform="translate(645.000000, 974.000000)">
                <path d="M59.4902344,18.2789063 C58.6265625,16.2744141 57.3890625,14.4826172 55.8228516,12.9421875 C54.2566406,11.4082031 52.4390625,10.209375 50.4087891,9.36503906 C48.3140625,8.49492188 46.096875,8.05664063 43.8087891,8.05664063 C40.63125,8.05664063 37.5310547,8.92675781 34.8369141,10.5703125 C34.1923828,10.9634766 33.5800781,11.3953125 33,11.8658203 C32.4199219,11.3953125 31.8076172,10.9634766 31.1630859,10.5703125 C28.4689453,8.92675781 25.36875,8.05664062 22.1912109,8.05664062 C19.903125,8.05664062 17.6859375,8.49492188 15.5912109,9.36503906 C13.5673828,10.2029297 11.7433594,11.4082031 10.1771484,12.9421875 C8.60449219,14.4826172 7.3734375,16.2744141 6.50976562,18.2789063 C5.61386719,20.3607422 5.15625,22.5714844 5.15625,24.8466797 C5.15625,26.9929688 5.59453125,29.2294922 6.46464844,31.5046875 C7.19296875,33.4060547 8.23710937,35.3783203 9.57128906,37.3699219 C11.6853516,40.5216797 14.5921875,43.8087891 18.2015625,47.1410156 C24.1828125,52.6646484 30.1060547,56.4802734 30.3574219,56.6349609 L31.8849609,57.6146484 C32.5617187,58.0464844 33.4318359,58.0464844 34.1085937,57.6146484 L35.6361328,56.6349609 C35.8875,56.4738281 41.8042969,52.6646484 47.7919922,47.1410156 C51.4013672,43.8087891 54.3082031,40.5216797 56.4222656,37.3699219 C57.7564453,35.3783203 58.8070313,33.4060547 59.5289063,31.5046875 C60.3990234,29.2294922 60.8373047,26.9929688 60.8373047,24.8466797 C60.84375,22.5714844 60.3861328,20.3607422 59.4902344,18.2789063 Z" id="路径"></path>
            </g>
        </g>
    </g>
</svg>