<?xml version="1.0" encoding="UTF-8"?>
<svg width="57px" height="57px" viewBox="0 0 57 57" version="1.1" xmlns="http://www.w3.org/2000/svg" xmlns:xlink="http://www.w3.org/1999/xlink">
    <!-- Generator: Sketch 55 (78076) - https://sketchapp.com -->
    <title>message</title>
    <desc>Created with Sketch.</desc>
    <g id="Page-2" stroke="none" stroke-width="1" fill="none" fill-rule="evenodd">
        <g id="视频播放态" transform="translate(-646.000000, -1197.000000)">
            <g id="分组-6" transform="translate(642.000000, 1193.000000)">
                <g id="message" transform="translate(0.203704, 0.203704)">
                    <rect id="矩形" fill="#000000" opacity="0" x="0" y="0" width="64.3703704" height="64.3703704"></rect>
                    <path d="M29.1678241,32.1851852 C29.1678241,33.8516277 30.5187427,35.2025463 32.1851852,35.2025463 C33.8516277,35.2025463 35.2025463,33.8516277 35.2025463,32.1851852 C35.2025463,30.5187427 33.8516277,29.1678241 32.1851852,29.1678241 C30.5187427,29.1678241 29.1678241,30.5187427 29.1678241,32.1851852 Z M41.740162,32.1851852 C41.740162,33.8516277 43.0910806,35.2025463 44.7575231,35.2025463 C46.4239657,35.2025463 47.7748843,33.8516277 47.7748843,32.1851852 C47.7748843,30.5187427 46.4239657,29.1678241 44.7575231,29.1678241 C43.0910806,29.1678241 41.740162,30.5187427 41.740162,32.1851852 Z M16.5954861,32.1851852 C16.5954861,33.8516277 17.9464047,35.2025463 19.6128472,35.2025463 C21.2792897,35.2025463 22.6302083,33.8516277 22.6302083,32.1851852 C22.6302083,30.5187427 21.2792897,29.1678241 19.6128472,29.1678241 C17.9464047,29.1678241 16.5954861,30.5187427 16.5954861,32.1851852 Z M58.1596354,21.2723958 C56.7389612,17.8967231 54.7022425,14.8667896 52.1060547,12.2643157 C49.5098669,9.66812789 46.4799334,7.62512297 43.0979745,6.21073495 C39.6405816,4.75862992 35.9694589,4.02314815 32.1851852,4.02314815 L32.0594618,4.02314815 C28.2500434,4.04200666 24.5600622,4.79634693 21.0900969,6.27988281 C17.7395689,7.71312934 14.7347801,9.74984809 12.163737,12.3460359 C9.59269387,14.9422237 7.57483362,17.9595848 6.17930411,21.3226852 C4.73348524,24.8052228 4.00428964,28.5077763 4.02314815,32.3171947 C4.04200666,36.679796 5.08551071,41.0109664 7.04050926,44.8832465 L7.04050926,54.4382234 C7.04050926,56.0349103 8.33546007,57.3298611 9.93214699,57.3298611 L19.49341,57.3298611 C23.3656901,59.2848597 27.6968605,60.3283637 32.0594618,60.3472222 L32.1914714,60.3472222 C35.9568866,60.3472222 39.6091508,59.6180266 43.0476852,58.1910663 C46.4107856,56.7892506 49.4344329,54.7776765 52.0243345,52.2066334 C54.6205223,49.6355903 56.6635272,46.6308015 58.0904876,43.2802734 C59.5740234,39.8103082 60.3283637,36.120327 60.3472222,32.3109086 C60.3660807,28.4826317 59.6243128,24.7675058 58.1596354,21.2723958 L58.1596354,21.2723958 Z M48.6612341,48.805816 C44.2546296,53.1684172 38.4084925,55.5697338 32.1851852,55.5697338 L32.0783203,55.5697338 C28.2877604,55.5508753 24.5223452,54.6079499 21.1969618,52.8352503 L20.6689236,52.5523727 L11.8179977,52.5523727 L11.8179977,43.7014468 L11.5351201,43.1734086 C9.76242043,39.8480252 8.81949508,36.08261 8.80063657,32.2920501 C8.7754919,26.0247396 11.1705223,20.1408854 15.5645544,15.7091363 C19.9523003,11.2773872 25.817296,8.82578125 32.0846065,8.80063657 L32.1914714,8.80063657 C35.3345558,8.80063657 38.3833478,9.41039497 41.256127,10.6173394 C44.0597584,11.792853 46.574226,13.4838325 48.7366681,15.6462746 C50.8928241,17.8024306 52.5900897,20.3231843 53.7656033,23.1268157 C54.9851201,26.0310258 55.5948785,29.1112486 55.5823061,32.2920501 C55.5445891,38.5530744 53.086697,44.41807 48.6612341,48.805816 Z" id="形状" fill="#FFFFFF" fill-rule="nonzero"></path>
                </g>
            </g>
        </g>
    </g>
</svg>