<?xml version="1.0" encoding="UTF-8"?>
<svg width="57px" height="57px" viewBox="0 0 57 57" version="1.1" xmlns="http://www.w3.org/2000/svg" xmlns:xlink="http://www.w3.org/1999/xlink">
    <!-- Generator: Sketch 55 (78076) - https://sketchapp.com -->
    <title>share</title>
    <desc>Created with Sketch.</desc>
    <g id="Page-2" stroke="none" stroke-width="1" fill="none" fill-rule="evenodd">
        <g id="视频播放态" transform="translate(-646.000000, -1105.000000)">
            <g id="分组-8" transform="translate(42.000000, 1101.000000)">
                <g id="share" transform="translate(600.203704, 0.203704)">
                    <rect id="矩形" fill="#000000" opacity="0" x="0" y="0" width="64.3703704" height="64.3703704"></rect>
                    <path d="M58.3400907,32.5299123 C57.2884126,32.5299123 56.4375626,33.3788968 56.4375626,34.4266511 L56.4375626,52.35291 C56.4375626,54.6539424 54.5576774,56.5255938 52.2491188,56.5255938 L12.0829129,56.5255937 C9.77371095,56.5255937 7.89498368,54.6538781 7.89498368,52.35291 L7.89498368,14.7097281 C7.89498368,12.4090174 9.77377526,10.537366 12.0829129,10.537366 L25.1745014,10.537366 C26.2261796,10.537366 27.0781875,9.68831712 27.0781875,8.64088459 C27.0781875,7.59428825 26.2261796,6.74530372 25.1745014,6.74530372 L12.0829129,6.74530372 C7.6747932,6.74530372 4.08819057,10.3180118 4.08819057,14.7097924 L4.08819057,52.3529743 C4.08819057,56.7450122 7.6747932,60.317463 12.0829129,60.317463 L52.2490545,60.317463 C56.6576887,60.317463 60.2437125,56.7450122 60.2437125,52.3529743 L60.2437124,34.426651 C60.2437124,33.3788968 59.3917689,32.5299123 58.3400907,32.5299123 L58.3400907,32.5299123 L58.3400907,32.5299123 Z M18.396391,43.6422309 C18.207206,44.6717806 18.8920931,45.6593893 19.9260813,45.8484457 C20.0416765,45.8699308 20.1567571,45.8798371 20.2707441,45.8798371 C21.171962,45.8798371 21.973602,45.2393999 22.1406586,44.3250594 C22.1555824,44.2446509 23.6653957,36.2701915 28.9221783,28.3418544 C31.9804009,23.7274388 35.6870373,20.0584979 39.938071,17.4362177 C43.9965748,14.9331993 48.5823006,13.3751409 53.6188927,12.7805044 L47.4221675,19.1500112 C46.6908366,19.9017336 46.70962,21.1021353 47.4641729,21.8310218 C47.8337301,22.1884212 48.3111633,22.366156 48.7886608,22.366156 C49.2848774,22.366156 49.7822519,22.1726612 50.1550898,21.7894024 L59.7486537,11.9284965 C59.7564372,11.9216136 59.7624839,11.913637 59.7696885,11.9066897 C59.7795948,11.8967834 59.7884719,11.8857835 59.7984426,11.875041 C59.8095068,11.8640411 59.8194774,11.8522049 59.8305416,11.8400472 C59.8310562,11.8381174 59.8321498,11.8361876 59.8344012,11.835094 C59.8443718,11.8232579 59.853249,11.812451 59.862126,11.8003576 C59.8720324,11.7885215 59.8830966,11.7755274 59.8919737,11.7625977 C59.9019443,11.7507616 59.9102425,11.7389255 59.9201488,11.7270251 C59.9301194,11.7121656 59.9400901,11.6981424 59.9511543,11.6832185 C59.95778,11.6733122 59.9638266,11.6633415 59.9710956,11.6534352 C59.9777213,11.6435289 59.9837679,11.6335582 59.989879,11.6237163 C59.992645,11.6206929 59.9948322,11.6168333 59.9975982,11.6127164 C59.9987561,11.6107866 60.0009432,11.6077632 60.0015222,11.6046756 C60.0076332,11.5947693 60.0136799,11.5847986 60.019791,11.5759858 C60.0296973,11.558103 60.0397323,11.54215 60.0496386,11.5252964 C60.0545918,11.5153901 60.0596092,11.5054194 60.0645624,11.4966066 C60.0667495,11.4924897 60.0684863,11.4886301 60.0706734,11.4856068 C60.0773634,11.4718408 60.0845037,11.4577532 60.0916439,11.4439874 C60.097176,11.4329875 60.1021935,11.4211513 60.1071467,11.4092509 C60.1154448,11.3932336 60.123164,11.3783741 60.1292751,11.3615848 C60.1353861,11.3486551 60.1403393,11.3356611 60.1453568,11.3227314 C60.1519825,11.3067141 60.1580292,11.2930125 60.1629823,11.2780886 C60.1690934,11.2632291 60.1751401,11.2483697 60.1802219,11.2335102 C60.1851751,11.2194226 60.1890347,11.2056567 60.1928943,11.192727 C60.1990053,11.1759378 60.2039585,11.1599204 60.2089116,11.1431311 C60.2128356,11.1301371 60.2161162,11.1172075 60.2188822,11.1042778 C60.2249933,11.0874885 60.2287885,11.0696056 60.2327125,11.052752 C60.2348996,11.0417522 60.2376657,11.0317815 60.2410106,11.0211032 C60.2410106,11.0180799 60.2410106,11.0149922 60.2426831,11.0119689 C60.2460281,10.9962731 60.2487941,10.9791622 60.2525894,10.962373 C60.2537473,10.9535602 60.2559344,10.9435896 60.2575426,10.9336832 C60.2587005,10.9265429 60.2597941,10.9188237 60.2608876,10.9116191 C60.2625601,10.8989468 60.2648116,10.8860171 60.2669986,10.873023 C60.2686711,10.863953 60.2697647,10.8551402 60.2709226,10.8471637 C60.2725308,10.8341697 60.2736886,10.8223336 60.2747822,10.8104974 C60.2759401,10.8025209 60.2770336,10.7956379 60.2770336,10.788755 C60.2776126,10.782644 60.2786418,10.7765972 60.2786418,10.7697143 C60.2786418,10.7658547 60.2797997,10.7616734 60.2808289,10.7587144 C60.2808289,10.7418608 60.2825014,10.7261651 60.2825014,10.7091185 C60.2825014,10.7061595 60.2825014,10.7041653 60.2835949,10.701142 C60.2835949,10.6912357 60.2847529,10.6813293 60.2847529,10.671423 L60.2847529,10.6705868 C60.2859108,10.6496162 60.2859108,10.6298036 60.2859108,10.6099266 L60.2859108,10.6088331 L60.2859108,10.6079968 C60.2859108,10.5760265 60.2847529,10.5454069 60.2836593,10.5145944 C60.2825658,10.511571 60.2825658,10.5095769 60.2825658,10.5066178 C60.2825658,10.5007641 60.2825658,10.4958753 60.2825658,10.4897643 L60.2825658,10.4886707 C60.2808933,10.466092 60.2786418,10.4451215 60.2770337,10.423379 C60.2758758,10.417268 60.2747822,10.410385 60.2747822,10.4043383 L60.2747822,10.4043383 C60.2747822,10.4004787 60.2747822,10.3974553 60.2736887,10.394432 C60.2709227,10.3746194 60.2687355,10.3558359 60.2659695,10.3357016 C60.2648116,10.3269532 60.263718,10.3189123 60.2626245,10.3100996 C60.2620455,10.3070762 60.260952,10.3032166 60.260952,10.3001933 C60.257607,10.283404 60.2548409,10.2673866 60.2520749,10.2505973 C60.2487942,10.2395975 60.2471217,10.2285333 60.2449346,10.2185626 C60.2449346,10.2166972 60.2449346,10.2147031 60.2437767,10.2136095 C60.2426832,10.2097499 60.2426832,10.2067265 60.2421685,10.2037031 C60.2388235,10.191867 60.2372153,10.178873 60.2327768,10.1671012 C60.2288528,10.1472242 60.2228705,10.1274116 60.217853,10.1075346 C60.2162448,10.0995581 60.2139934,10.0926751 60.2112273,10.0846986 C60.2051163,10.0618626 60.1979117,10.0389623 60.1901925,10.0161263 C60.1890346,10.0111731 60.1874264,10.0073135 60.1862685,10.0023604 C60.1813153,9.98634301 60.1752043,9.97038997 60.1690933,9.95360068 C60.1690933,9.95276443 60.1669062,9.95057735 60.1669062,9.94864749 C60.165298,9.94176451 60.1613741,9.93488154 60.1591869,9.92799862 C60.158029,9.92497529 60.1569999,9.92304544 60.155263,9.9200221 C60.149152,9.90291121 60.1431695,9.88612192 60.1353217,9.86933264 C60.1313977,9.86051987 60.1270236,9.85029189 60.1231639,9.84147912 C60.1231639,9.84038558 60.1220704,9.83954933 60.1220704,9.83954933 C60.1143512,9.82276004 60.1071466,9.80487721 60.099363,9.78776632 C60.099363,9.78776632 60.0982051,9.78776632 60.0982051,9.78693008 C60.0805153,9.75026379 60.0617318,9.71449813 60.0406327,9.67783192 L60.0406327,9.67783192 C60.0257089,9.65190826 60.0107851,9.62707808 59.9958613,9.60121873 C59.9936742,9.59928894 59.9914227,9.59626554 59.9897502,9.59433575 C59.9814521,9.57947625 59.9714814,9.56545307 59.9615751,9.5516228 L59.9599026,9.54859947 C59.956043,9.54165219 59.9516045,9.53476921 59.9460724,9.52762894 C59.9411192,9.52074596 59.936166,9.51276944 59.930055,9.50505027 C59.9256165,9.50009709 59.9217569,9.49405042 59.9178972,9.48903293 C59.9140377,9.4829862 59.910178,9.47803307 59.9057395,9.47307989 C59.9018799,9.46729045 59.8980203,9.46233733 59.8940964,9.45622629 C59.8841901,9.44323228 59.8741551,9.43030263 59.8631552,9.41737293 C59.858202,9.41158349 59.852091,9.40470058 59.8471379,9.39865385 C59.8443718,9.3947299 59.8410268,9.39061302 59.8382608,9.38675338 C59.8255241,9.37189388 59.8122728,9.35703444 59.7984425,9.34211057 C59.7950975,9.33799364 59.7923315,9.33413405 59.7884719,9.33001712 C59.7702674,9.31014013 59.7503261,9.29142105 59.7326362,9.27160842 C59.7304492,9.26967863 59.7287123,9.26858509 59.7265252,9.26665524 C59.7065839,9.24677824 59.6855491,9.22587208 59.6645785,9.207153 C59.662906,9.20605946 59.662906,9.20605946 59.6618125,9.20496592 C59.6396197,9.18508893 59.6192282,9.16636985 59.5948483,9.14848702 C59.5948483,9.14739347 59.5932401,9.14546368 59.5920823,9.14462743 C59.5710474,9.12751654 59.5489191,9.10969802 59.526276,9.09393797 C59.52351,9.09200818 59.5213228,9.08898478 59.5173989,9.08705499 C59.4974576,9.07219549 59.4775807,9.05817231 59.4565458,9.04434204 C59.4504991,9.03938886 59.4444524,9.03527198 59.4389203,9.03141234 C59.4283707,9.02452936 59.4184644,9.01738909 59.4079148,9.01153534 C59.3996166,9.00548861 59.3918974,9.00162903 59.3835992,8.9955823 C59.3736286,8.99062912 59.3636579,8.98458245 59.3559387,8.97872871 C59.3470616,8.97377552 59.3386991,8.9688224 59.3299507,8.96386921 C59.3210736,8.95891602 59.3122608,8.95473484 59.3028048,8.94900971 C59.2923195,8.94296298 59.2812553,8.93717361 59.2701268,8.93189882 C59.2541094,8.92308605 59.2380921,8.91510953 59.2225893,8.90706871 C59.2104315,8.90018573 59.1976949,8.89523261 59.1843792,8.88944317 C59.170549,8.8823029 59.1545316,8.87541992 59.1396078,8.86930888 C59.1257775,8.86242591 59.1108537,8.85740841 59.0970235,8.85168335 C59.0837722,8.84563662 59.0688484,8.83958989 59.0550181,8.83457246 C59.0389364,8.82884739 59.0240769,8.8238299 59.0068374,8.81778317 C58.9952586,8.81282998 58.9819429,8.8089704 58.9692705,8.80478915 C58.961487,8.80176582 58.9531888,8.79983597 58.9443117,8.79681263 L44.9725402,4.18271871 C43.9745105,3.85201487 42.8962655,4.39133039 42.5665908,5.38530741 C42.2351794,6.37928443 42.7768107,7.45264074 43.7731678,7.78218668 L49.3939755,9.63788495 C45.2624609,10.527717 41.4302586,12.0556704 37.934421,14.2115174 C33.2103926,17.1256481 29.1098836,21.1759823 25.744565,26.2507845 C20.0648985,34.8185296 18.4616827,43.2856677 18.396391,43.6422309 L18.396391,43.6422309 L18.396391,43.6422309 Z" id="形状" fill="#FFFFFF" fill-rule="nonzero"></path>
                </g>
            </g>
        </g>
    </g>
</svg>