<?xml version="1.0" encoding="UTF-8"?>
<svg width="27px" height="29px" viewBox="0 0 27 29" version="1.1" xmlns="http://www.w3.org/2000/svg" xmlns:xlink="http://www.w3.org/1999/xlink">
    <!-- Generator: Sketch 55 (78076) - https://sketchapp.com -->
    <title>购物车icon</title>
    <desc>Created with Sketch.</desc>
    <g id="Page-2" stroke="none" stroke-width="1" fill="none" fill-rule="evenodd">
        <g id="视频播放态" transform="translate(-73.000000, -1155.000000)">
            <g id="分组-8" transform="translate(42.000000, 1101.000000)">
                <g id="分组-7" transform="translate(29.000000, 51.000000)">
                    <g id="购物车icon" transform="translate(0.000000, 1.000000)">
                        <rect id="矩形" fill="#000000" opacity="0" x="0.592592593" y="0.592592593" width="31.2888889" height="31.2888889"></rect>
                        <path d="M13.6561353,30.8814815 C11.9338466,30.8814815 10.5332183,29.464 10.5332183,27.7209877 C10.5332183,25.9779753 11.9338466,24.5604938 13.6561353,24.5604938 C15.378424,24.5604938 16.7790523,25.9779753 16.7790523,27.7209877 C16.7790523,29.464 15.378424,30.8814815 13.6561353,30.8814815 Z M24.5863447,30.8814815 C22.864056,30.8814815 21.4634277,29.464 21.4634277,27.7209877 C21.4634277,25.9779753 22.864056,24.5604938 24.5863447,24.5604938 C26.3086334,24.5604938 27.7092616,25.9779753 27.7092616,27.7209877 C27.7092616,29.464 26.3086334,30.8814815 24.5863447,30.8814815 Z M28.5508878,6.33550617 C28.1440216,5.85952939 27.5503648,5.58948739 26.9285324,5.59753086 L7.8115962,5.59753086 L7.65701181,4.6557037 C7.42430709,3.38770502 6.34225424,2.46039369 5.06811365,2.43703704 L3.50665517,2.43703704 C3.07547031,2.43703704 2.72592593,2.79078736 2.72592593,3.22716049 C2.72592593,3.66353363 3.07547031,4.01728395 3.50665517,4.01728395 L5.06811365,4.01728395 C5.5474814,4.01728395 6.03777937,4.43762963 6.11585229,4.91644444 L8.72504941,20.7615802 C8.95775413,22.0295789 10.039807,22.9568903 11.3139476,22.9802469 L26.9285324,22.9802469 C27.3597172,22.9802469 27.7092616,22.6264966 27.7092616,22.1901235 C27.7092616,21.7537503 27.3597172,21.4 26.9285324,21.4 L11.3139476,21.4 C10.8041768,21.3740196 10.3748373,21.005564 10.2662089,20.5008395 L9.88052869,18.1620741 L25.4404625,16.792 C26.6505928,16.6861235 27.7561054,15.652642 27.9559721,14.4390123 L29.0037107,8.07535802 C29.1136564,7.45596576 28.9485974,6.81899783 28.5524492,6.33392593 L28.5508878,6.33550617 Z" id="形状" fill="#FFFFFF" fill-rule="nonzero"></path>
                    </g>
                </g>
            </g>
        </g>
    </g>
</svg>