<?xml version="1.0" encoding="UTF-8"?>
<svg width="56px" height="50px" viewBox="0 0 56 50" version="1.1" xmlns="http://www.w3.org/2000/svg" xmlns:xlink="http://www.w3.org/1999/xlink">
    <!-- Generator: Sketch 55 (78076) - https://sketchapp.com -->
    <title>heart</title>
    <desc>Created with Sketch.</desc>
    <g id="Page-2" stroke="none" stroke-width="1" fill="none" fill-rule="evenodd">
        <g id="视频播放态" transform="translate(-647.000000, -985.000000)">
            <g id="分组-5" transform="translate(642.000000, 977.000000)">
                <g id="heart" transform="translate(0.207547, 0.207547)">
                    <rect id="矩形" fill="#000000" opacity="0" x="0" y="0" width="65.5849057" height="65.5849057"></rect>
                    <path d="M59.116082,18.1639446 C58.257842,16.1720593 57.028125,14.3915315 55.4717644,12.8607901 C53.9154039,11.3364534 52.1092571,10.1451651 50.0917527,9.30613945 C48.0102005,8.44149469 45.8069575,8.00596993 43.5332621,8.00596993 C40.3757075,8.00596993 37.2950103,8.87061468 34.617814,10.5038325 C33.9773364,10.8945239 33.3688827,11.3236439 32.7924528,11.7911925 C32.216023,11.3236439 31.6075693,10.8945239 30.9670917,10.5038325 C28.2898953,8.87061468 25.2091981,8.00596993 22.0516436,8.00596993 C19.7779481,8.00596993 17.5747052,8.44149469 15.493153,9.30613945 C13.4820534,10.1387603 11.6695018,11.3364534 10.1131412,12.8607901 C8.55037588,14.3915315 7.32706368,16.1720593 6.4688237,18.1639446 C5.57855985,20.2326872 5.12382075,22.4295254 5.12382075,24.6904113 C5.12382075,26.8232017 5.55934552,29.0456589 6.42399027,31.3065448 C7.14772995,33.1959537 8.18530366,35.1558152 9.51109228,37.1348909 C11.6118588,40.2668264 14.5004127,43.5332621 18.0870873,46.8445312 C24.0307193,52.3334242 29.9167084,56.1250516 30.1664947,56.2787662 L31.6844266,57.2522922 C32.3569281,57.6814121 33.2215728,57.6814121 33.8940743,57.2522922 L35.4120062,56.2787662 C35.6617925,56.1186468 41.5413768,52.3334242 47.4914136,46.8445312 C51.0780881,43.5332621 53.9666421,40.2668264 56.0674086,37.1348909 C57.3931972,35.1558152 58.4371757,33.1959537 59.1545106,31.3065448 C60.0191554,29.0456589 60.4546801,26.8232017 60.4546801,24.6904113 C60.4610849,22.4295254 60.0063458,20.2326872 59.116082,18.1639446 Z M32.7924528,52.1861144 C32.7924528,52.1861144 9.99145047,37.5768205 9.99145047,24.6904113 C9.99145047,18.1639446 15.3906766,12.8735996 22.0516436,12.8735996 C26.7335348,12.8735996 30.7941627,15.4867482 32.7924528,19.3039947 C34.7907429,15.4867482 38.8513709,12.8735996 43.5332621,12.8735996 C50.1942291,12.8735996 55.5934552,18.1639446 55.5934552,24.6904113 C55.5934552,37.5768205 32.7924528,52.1861144 32.7924528,52.1861144 Z" id="形状" fill="#FFFFFF" fill-rule="nonzero"></path>
                </g>
            </g>
        </g>
    </g>
</svg>